<mxfile host="app.diagrams.net" agent="Mozilla/5.0 (Windows NT 10.0; Win64; x64) AppleWebKit/537.36 (KHTML, like Gecko) Chrome/141.0.0.0 Safari/537.36 Edg/141.0.0.0" version="28.2.8">
  <diagram name="第 1 页" id="Xkrjm-Nn21SdgeqC5i-q">
    <mxGraphModel dx="1723" dy="1410" grid="0" gridSize="10" guides="1" tooltips="1" connect="1" arrows="1" fold="1" page="0" pageScale="1" pageWidth="827" pageHeight="1169" math="0" shadow="0">
      <root>
        <mxCell id="0" />
        <mxCell id="1" parent="0" />
        <mxCell id="9CwyKLwQtNaCPTv-vUPz-1" value="" style="whiteSpace=wrap;html=1;aspect=fixed;fillColor=#00FF00;strokeColor=light-dark(#000000, #446e2c);" vertex="1" parent="1">
          <mxGeometry x="48" y="-36" width="58" height="58" as="geometry" />
        </mxCell>
        <mxCell id="9CwyKLwQtNaCPTv-vUPz-2" value="" style="whiteSpace=wrap;html=1;aspect=fixed;fillColor=#00FF00;strokeColor=light-dark(#000000, #446e2c);" vertex="1" parent="1">
          <mxGeometry x="106" y="-36" width="58" height="58" as="geometry" />
        </mxCell>
        <mxCell id="9CwyKLwQtNaCPTv-vUPz-3" value="" style="whiteSpace=wrap;html=1;aspect=fixed;fillColor=#00FF00;strokeColor=light-dark(#000000, #446e2c);" vertex="1" parent="1">
          <mxGeometry x="48" y="22" width="58" height="58" as="geometry" />
        </mxCell>
        <mxCell id="9CwyKLwQtNaCPTv-vUPz-4" value="" style="whiteSpace=wrap;html=1;aspect=fixed;fillColor=#00FF00;strokeColor=light-dark(#000000, #446e2c);" vertex="1" parent="1">
          <mxGeometry x="106" y="22" width="58" height="58" as="geometry" />
        </mxCell>
        <mxCell id="9CwyKLwQtNaCPTv-vUPz-17" value="" style="whiteSpace=wrap;html=1;aspect=fixed;fillColor=light-dark(#f50000, #008f00);strokeColor=light-dark(#000000, #446e2c);" vertex="1" parent="1">
          <mxGeometry x="164" y="-36" width="58" height="58" as="geometry" />
        </mxCell>
        <mxCell id="9CwyKLwQtNaCPTv-vUPz-18" value="" style="whiteSpace=wrap;html=1;aspect=fixed;fillColor=light-dark(#f50000, #008f00);strokeColor=light-dark(#000000, #446e2c);" vertex="1" parent="1">
          <mxGeometry x="222" y="-36" width="58" height="58" as="geometry" />
        </mxCell>
        <mxCell id="9CwyKLwQtNaCPTv-vUPz-19" value="" style="whiteSpace=wrap;html=1;aspect=fixed;fillColor=light-dark(#f50000, #008f00);strokeColor=light-dark(#000000, #446e2c);" vertex="1" parent="1">
          <mxGeometry x="164" y="22" width="58" height="58" as="geometry" />
        </mxCell>
        <mxCell id="9CwyKLwQtNaCPTv-vUPz-49" style="edgeStyle=none;curved=1;rounded=0;orthogonalLoop=1;jettySize=auto;html=1;fontSize=12;startSize=8;endSize=8;exitX=1;exitY=0.5;exitDx=0;exitDy=0;entryX=0;entryY=0;entryDx=0;entryDy=0;" edge="1" parent="1" source="9CwyKLwQtNaCPTv-vUPz-20" target="9CwyKLwQtNaCPTv-vUPz-35">
          <mxGeometry relative="1" as="geometry">
            <mxPoint x="439.5" y="-66.33333333333326" as="targetPoint" />
          </mxGeometry>
        </mxCell>
        <mxCell id="9CwyKLwQtNaCPTv-vUPz-20" value="" style="whiteSpace=wrap;html=1;aspect=fixed;fillColor=light-dark(#f50000, #008f00);strokeColor=light-dark(#000000, #446e2c);" vertex="1" parent="1">
          <mxGeometry x="222" y="22" width="58" height="58" as="geometry" />
        </mxCell>
        <mxCell id="9CwyKLwQtNaCPTv-vUPz-21" value="" style="whiteSpace=wrap;html=1;aspect=fixed;fillColor=#0000FF;strokeColor=light-dark(#000000, #446e2c);" vertex="1" parent="1">
          <mxGeometry x="48" y="80" width="58" height="58" as="geometry" />
        </mxCell>
        <mxCell id="9CwyKLwQtNaCPTv-vUPz-22" value="" style="whiteSpace=wrap;html=1;aspect=fixed;fillColor=#0000FF;strokeColor=light-dark(#000000, #446e2c);" vertex="1" parent="1">
          <mxGeometry x="106" y="80" width="58" height="58" as="geometry" />
        </mxCell>
        <mxCell id="9CwyKLwQtNaCPTv-vUPz-23" value="" style="whiteSpace=wrap;html=1;aspect=fixed;fillColor=#0000FF;strokeColor=light-dark(#000000, #446e2c);" vertex="1" parent="1">
          <mxGeometry x="48" y="138" width="58" height="58" as="geometry" />
        </mxCell>
        <mxCell id="9CwyKLwQtNaCPTv-vUPz-24" value="" style="whiteSpace=wrap;html=1;aspect=fixed;fillColor=#0000FF;strokeColor=light-dark(#000000, #446e2c);" vertex="1" parent="1">
          <mxGeometry x="106" y="138" width="58" height="58" as="geometry" />
        </mxCell>
        <mxCell id="9CwyKLwQtNaCPTv-vUPz-25" value="" style="whiteSpace=wrap;html=1;aspect=fixed;fillColor=#00FF00;strokeColor=light-dark(#000000, #446e2c);" vertex="1" parent="1">
          <mxGeometry x="164" y="80" width="58" height="58" as="geometry" />
        </mxCell>
        <mxCell id="9CwyKLwQtNaCPTv-vUPz-26" value="" style="whiteSpace=wrap;html=1;aspect=fixed;fillColor=#00FF00;strokeColor=light-dark(#000000, #446e2c);" vertex="1" parent="1">
          <mxGeometry x="222" y="80" width="58" height="58" as="geometry" />
        </mxCell>
        <mxCell id="9CwyKLwQtNaCPTv-vUPz-27" value="" style="whiteSpace=wrap;html=1;aspect=fixed;fillColor=#00FF00;strokeColor=light-dark(#000000, #446e2c);" vertex="1" parent="1">
          <mxGeometry x="164" y="138" width="58" height="58" as="geometry" />
        </mxCell>
        <mxCell id="9CwyKLwQtNaCPTv-vUPz-28" value="" style="whiteSpace=wrap;html=1;aspect=fixed;fillColor=#00FF00;strokeColor=light-dark(#000000, #446e2c);" vertex="1" parent="1">
          <mxGeometry x="222" y="138" width="58" height="58" as="geometry" />
        </mxCell>
        <mxCell id="9CwyKLwQtNaCPTv-vUPz-29" value="" style="whiteSpace=wrap;html=1;aspect=fixed;fillColor=#00FF00;strokeColor=light-dark(#000000, #446e2c);" vertex="1" parent="1">
          <mxGeometry x="527" y="177" width="58" height="58" as="geometry" />
        </mxCell>
        <mxCell id="9CwyKLwQtNaCPTv-vUPz-30" value="" style="whiteSpace=wrap;html=1;aspect=fixed;fillColor=light-dark(#f50000, #008f00);strokeColor=light-dark(#000000, #446e2c);" vertex="1" parent="1">
          <mxGeometry x="585" y="177" width="58" height="58" as="geometry" />
        </mxCell>
        <mxCell id="9CwyKLwQtNaCPTv-vUPz-31" value="" style="whiteSpace=wrap;html=1;aspect=fixed;fillColor=#0000FF;strokeColor=light-dark(#000000, #446e2c);" vertex="1" parent="1">
          <mxGeometry x="527" y="235" width="58" height="58" as="geometry" />
        </mxCell>
        <mxCell id="9CwyKLwQtNaCPTv-vUPz-116" style="edgeStyle=none;curved=1;rounded=0;orthogonalLoop=1;jettySize=auto;html=1;entryX=0;entryY=0;entryDx=0;entryDy=0;fontSize=12;startSize=8;endSize=8;exitX=1;exitY=0;exitDx=0;exitDy=0;" edge="1" parent="1" source="9CwyKLwQtNaCPTv-vUPz-32" target="9CwyKLwQtNaCPTv-vUPz-103">
          <mxGeometry relative="1" as="geometry" />
        </mxCell>
        <mxCell id="9CwyKLwQtNaCPTv-vUPz-32" value="" style="whiteSpace=wrap;html=1;aspect=fixed;fillColor=#00FF00;strokeColor=light-dark(#000000, #446e2c);" vertex="1" parent="1">
          <mxGeometry x="585" y="235" width="58" height="58" as="geometry" />
        </mxCell>
        <mxCell id="9CwyKLwQtNaCPTv-vUPz-33" value="" style="whiteSpace=wrap;html=1;aspect=fixed;fillColor=#00FF00;strokeColor=light-dark(#000000, #446e2c);" vertex="1" parent="1">
          <mxGeometry x="472" y="-210" width="58" height="58" as="geometry" />
        </mxCell>
        <mxCell id="9CwyKLwQtNaCPTv-vUPz-34" value="" style="whiteSpace=wrap;html=1;aspect=fixed;fillColor=#00FF00;strokeColor=light-dark(#000000, #446e2c);" vertex="1" parent="1">
          <mxGeometry x="588" y="-210" width="58" height="58" as="geometry" />
        </mxCell>
        <mxCell id="9CwyKLwQtNaCPTv-vUPz-35" value="" style="whiteSpace=wrap;html=1;aspect=fixed;fillColor=#00FF00;strokeColor=light-dark(#000000, #446e2c);" vertex="1" parent="1">
          <mxGeometry x="472" y="-94" width="58" height="58" as="geometry" />
        </mxCell>
        <mxCell id="9CwyKLwQtNaCPTv-vUPz-36" value="" style="whiteSpace=wrap;html=1;aspect=fixed;fillColor=#00FF00;strokeColor=light-dark(#000000, #446e2c);" vertex="1" parent="1">
          <mxGeometry x="530" y="-152" width="58" height="58" as="geometry" />
        </mxCell>
        <mxCell id="9CwyKLwQtNaCPTv-vUPz-37" value="" style="whiteSpace=wrap;html=1;aspect=fixed;fillColor=light-dark(#f50000, #008f00);strokeColor=light-dark(#000000, #446e2c);" vertex="1" parent="1">
          <mxGeometry x="530" y="-210" width="58" height="58" as="geometry" />
        </mxCell>
        <mxCell id="9CwyKLwQtNaCPTv-vUPz-38" value="" style="whiteSpace=wrap;html=1;aspect=fixed;fillColor=light-dark(#f50000, #008f00);strokeColor=light-dark(#000000, #446e2c);" vertex="1" parent="1">
          <mxGeometry x="646" y="-210" width="58" height="58" as="geometry" />
        </mxCell>
        <mxCell id="9CwyKLwQtNaCPTv-vUPz-39" value="" style="whiteSpace=wrap;html=1;aspect=fixed;fillColor=light-dark(#f50000, #008f00);strokeColor=light-dark(#000000, #446e2c);" vertex="1" parent="1">
          <mxGeometry x="530" y="-94" width="58" height="58" as="geometry" />
        </mxCell>
        <mxCell id="9CwyKLwQtNaCPTv-vUPz-40" value="" style="whiteSpace=wrap;html=1;aspect=fixed;fillColor=light-dark(#f50000, #008f00);strokeColor=light-dark(#000000, #446e2c);" vertex="1" parent="1">
          <mxGeometry x="646" y="-94" width="58" height="58" as="geometry" />
        </mxCell>
        <mxCell id="9CwyKLwQtNaCPTv-vUPz-41" value="" style="whiteSpace=wrap;html=1;aspect=fixed;fillColor=#0000FF;strokeColor=light-dark(#000000, #446e2c);" vertex="1" parent="1">
          <mxGeometry x="472" y="-152" width="58" height="58" as="geometry" />
        </mxCell>
        <mxCell id="9CwyKLwQtNaCPTv-vUPz-42" value="" style="whiteSpace=wrap;html=1;aspect=fixed;fillColor=#0000FF;strokeColor=light-dark(#000000, #446e2c);" vertex="1" parent="1">
          <mxGeometry x="588" y="-152" width="58" height="58" as="geometry" />
        </mxCell>
        <mxCell id="9CwyKLwQtNaCPTv-vUPz-43" value="" style="whiteSpace=wrap;html=1;aspect=fixed;fillColor=#0000FF;strokeColor=light-dark(#000000, #446e2c);" vertex="1" parent="1">
          <mxGeometry x="472" y="-36" width="58" height="58" as="geometry" />
        </mxCell>
        <mxCell id="9CwyKLwQtNaCPTv-vUPz-44" value="" style="whiteSpace=wrap;html=1;aspect=fixed;fillColor=#0000FF;strokeColor=light-dark(#000000, #446e2c);" vertex="1" parent="1">
          <mxGeometry x="588" y="-36" width="58" height="58" as="geometry" />
        </mxCell>
        <mxCell id="9CwyKLwQtNaCPTv-vUPz-45" value="" style="whiteSpace=wrap;html=1;aspect=fixed;fillColor=#00FF00;strokeColor=light-dark(#000000, #446e2c);" vertex="1" parent="1">
          <mxGeometry x="588" y="-94" width="58" height="58" as="geometry" />
        </mxCell>
        <mxCell id="9CwyKLwQtNaCPTv-vUPz-113" style="edgeStyle=none;curved=1;rounded=0;orthogonalLoop=1;jettySize=auto;html=1;entryX=0.053;entryY=0.085;entryDx=0;entryDy=0;fontSize=12;startSize=8;endSize=8;exitX=1;exitY=1;exitDx=0;exitDy=0;entryPerimeter=0;" edge="1" parent="1" source="9CwyKLwQtNaCPTv-vUPz-46" target="9CwyKLwQtNaCPTv-vUPz-55">
          <mxGeometry relative="1" as="geometry" />
        </mxCell>
        <mxCell id="9CwyKLwQtNaCPTv-vUPz-46" value="" style="whiteSpace=wrap;html=1;aspect=fixed;fillColor=#00FF00;strokeColor=light-dark(#000000, #446e2c);" vertex="1" parent="1">
          <mxGeometry x="646" y="-152" width="58" height="58" as="geometry" />
        </mxCell>
        <mxCell id="9CwyKLwQtNaCPTv-vUPz-47" value="" style="whiteSpace=wrap;html=1;aspect=fixed;fillColor=#00FF00;strokeColor=light-dark(#000000, #446e2c);" vertex="1" parent="1">
          <mxGeometry x="530" y="-36" width="58" height="58" as="geometry" />
        </mxCell>
        <mxCell id="9CwyKLwQtNaCPTv-vUPz-48" value="" style="whiteSpace=wrap;html=1;aspect=fixed;fillColor=#00FF00;strokeColor=light-dark(#000000, #446e2c);" vertex="1" parent="1">
          <mxGeometry x="646" y="-36" width="58" height="58" as="geometry" />
        </mxCell>
        <mxCell id="9CwyKLwQtNaCPTv-vUPz-50" value="&lt;b&gt;&lt;font style=&quot;font-size: 17px;&quot;&gt;Remosaic&lt;/font&gt;&lt;/b&gt;" style="text;html=1;whiteSpace=wrap;strokeColor=none;fillColor=none;align=center;verticalAlign=middle;rounded=0;" vertex="1" parent="1">
          <mxGeometry x="351" y="-43" width="60" height="30" as="geometry" />
        </mxCell>
        <mxCell id="9CwyKLwQtNaCPTv-vUPz-51" style="edgeStyle=none;curved=1;rounded=0;orthogonalLoop=1;jettySize=auto;html=1;entryX=0.1;entryY=0.043;entryDx=0;entryDy=0;entryPerimeter=0;fontSize=12;startSize=8;endSize=8;" edge="1" parent="1" source="9CwyKLwQtNaCPTv-vUPz-26" target="9CwyKLwQtNaCPTv-vUPz-31">
          <mxGeometry relative="1" as="geometry" />
        </mxCell>
        <mxCell id="9CwyKLwQtNaCPTv-vUPz-52" value="&lt;span style=&quot;font-size: 17px;&quot;&gt;&lt;b&gt;Binning&lt;/b&gt;&lt;/span&gt;" style="text;html=1;whiteSpace=wrap;strokeColor=none;fillColor=none;align=center;verticalAlign=middle;rounded=0;" vertex="1" parent="1">
          <mxGeometry x="339" y="171" width="60" height="20" as="geometry" />
        </mxCell>
        <mxCell id="9CwyKLwQtNaCPTv-vUPz-53" value="" style="whiteSpace=wrap;html=1;aspect=fixed;fillColor=#00FF00;strokeColor=light-dark(#000000, #446e2c);" vertex="1" parent="1">
          <mxGeometry x="879" y="-214" width="58" height="58" as="geometry" />
        </mxCell>
        <mxCell id="9CwyKLwQtNaCPTv-vUPz-54" value="" style="whiteSpace=wrap;html=1;aspect=fixed;fillColor=#00FF00;strokeColor=light-dark(#000000, #446e2c);" vertex="1" parent="1">
          <mxGeometry x="995" y="-214" width="58" height="58" as="geometry" />
        </mxCell>
        <mxCell id="9CwyKLwQtNaCPTv-vUPz-55" value="" style="whiteSpace=wrap;html=1;aspect=fixed;fillColor=#00FF00;strokeColor=light-dark(#000000, #446e2c);" vertex="1" parent="1">
          <mxGeometry x="879" y="-98" width="58" height="58" as="geometry" />
        </mxCell>
        <mxCell id="9CwyKLwQtNaCPTv-vUPz-56" value="" style="whiteSpace=wrap;html=1;aspect=fixed;fillColor=#00FF00;strokeColor=light-dark(#000000, #446e2c);" vertex="1" parent="1">
          <mxGeometry x="937" y="-156" width="58" height="58" as="geometry" />
        </mxCell>
        <mxCell id="9CwyKLwQtNaCPTv-vUPz-57" value="" style="whiteSpace=wrap;html=1;aspect=fixed;fillColor=#00FF00;strokeColor=light-dark(#000000, #446e2c);" vertex="1" parent="1">
          <mxGeometry x="937" y="-214" width="58" height="58" as="geometry" />
        </mxCell>
        <mxCell id="9CwyKLwQtNaCPTv-vUPz-58" value="" style="whiteSpace=wrap;html=1;aspect=fixed;fillColor=#00FF00;strokeColor=light-dark(#000000, #446e2c);" vertex="1" parent="1">
          <mxGeometry x="1053" y="-214" width="58" height="58" as="geometry" />
        </mxCell>
        <mxCell id="9CwyKLwQtNaCPTv-vUPz-59" value="" style="whiteSpace=wrap;html=1;aspect=fixed;fillColor=#00FF00;strokeColor=light-dark(#000000, #446e2c);" vertex="1" parent="1">
          <mxGeometry x="937" y="-98" width="58" height="58" as="geometry" />
        </mxCell>
        <mxCell id="9CwyKLwQtNaCPTv-vUPz-60" value="" style="whiteSpace=wrap;html=1;aspect=fixed;fillColor=#00FF00;strokeColor=light-dark(#000000, #446e2c);" vertex="1" parent="1">
          <mxGeometry x="1053" y="-98" width="58" height="58" as="geometry" />
        </mxCell>
        <mxCell id="9CwyKLwQtNaCPTv-vUPz-61" value="" style="whiteSpace=wrap;html=1;aspect=fixed;fillColor=#00FF00;strokeColor=light-dark(#000000, #446e2c);" vertex="1" parent="1">
          <mxGeometry x="879" y="-156" width="58" height="58" as="geometry" />
        </mxCell>
        <mxCell id="9CwyKLwQtNaCPTv-vUPz-62" value="" style="whiteSpace=wrap;html=1;aspect=fixed;fillColor=#00FF00;strokeColor=light-dark(#000000, #446e2c);" vertex="1" parent="1">
          <mxGeometry x="995" y="-156" width="58" height="58" as="geometry" />
        </mxCell>
        <mxCell id="9CwyKLwQtNaCPTv-vUPz-63" value="" style="whiteSpace=wrap;html=1;aspect=fixed;fillColor=#00FF00;strokeColor=light-dark(#000000, #446e2c);" vertex="1" parent="1">
          <mxGeometry x="879" y="-40" width="58" height="58" as="geometry" />
        </mxCell>
        <mxCell id="9CwyKLwQtNaCPTv-vUPz-64" value="" style="whiteSpace=wrap;html=1;aspect=fixed;fillColor=#00FF00;strokeColor=light-dark(#000000, #446e2c);" vertex="1" parent="1">
          <mxGeometry x="995" y="-40" width="58" height="58" as="geometry" />
        </mxCell>
        <mxCell id="9CwyKLwQtNaCPTv-vUPz-65" value="" style="whiteSpace=wrap;html=1;aspect=fixed;fillColor=#00FF00;strokeColor=light-dark(#000000, #446e2c);" vertex="1" parent="1">
          <mxGeometry x="995" y="-98" width="58" height="58" as="geometry" />
        </mxCell>
        <mxCell id="9CwyKLwQtNaCPTv-vUPz-66" value="" style="whiteSpace=wrap;html=1;aspect=fixed;fillColor=#00FF00;strokeColor=light-dark(#000000, #446e2c);" vertex="1" parent="1">
          <mxGeometry x="1053" y="-156" width="58" height="58" as="geometry" />
        </mxCell>
        <mxCell id="9CwyKLwQtNaCPTv-vUPz-67" value="" style="whiteSpace=wrap;html=1;aspect=fixed;fillColor=#00FF00;strokeColor=light-dark(#000000, #446e2c);" vertex="1" parent="1">
          <mxGeometry x="937" y="-40" width="58" height="58" as="geometry" />
        </mxCell>
        <mxCell id="9CwyKLwQtNaCPTv-vUPz-68" value="" style="whiteSpace=wrap;html=1;aspect=fixed;fillColor=#00FF00;strokeColor=light-dark(#000000, #446e2c);" vertex="1" parent="1">
          <mxGeometry x="1053" y="-40" width="58" height="58" as="geometry" />
        </mxCell>
        <mxCell id="9CwyKLwQtNaCPTv-vUPz-69" value="" style="whiteSpace=wrap;html=1;aspect=fixed;fillColor=#0000FF;strokeColor=light-dark(#000000, #446e2c);" vertex="1" parent="1">
          <mxGeometry x="904" y="-201" width="58" height="58" as="geometry" />
        </mxCell>
        <mxCell id="9CwyKLwQtNaCPTv-vUPz-70" value="" style="whiteSpace=wrap;html=1;aspect=fixed;fillColor=#0000FF;strokeColor=light-dark(#000000, #446e2c);" vertex="1" parent="1">
          <mxGeometry x="1020" y="-201" width="58" height="58" as="geometry" />
        </mxCell>
        <mxCell id="9CwyKLwQtNaCPTv-vUPz-71" value="" style="whiteSpace=wrap;html=1;aspect=fixed;fillColor=#0000FF;strokeColor=light-dark(#000000, #446e2c);" vertex="1" parent="1">
          <mxGeometry x="904" y="-85" width="58" height="58" as="geometry" />
        </mxCell>
        <mxCell id="9CwyKLwQtNaCPTv-vUPz-72" value="" style="whiteSpace=wrap;html=1;aspect=fixed;fillColor=#0000FF;strokeColor=light-dark(#000000, #446e2c);" vertex="1" parent="1">
          <mxGeometry x="962" y="-143" width="58" height="58" as="geometry" />
        </mxCell>
        <mxCell id="9CwyKLwQtNaCPTv-vUPz-73" value="" style="whiteSpace=wrap;html=1;aspect=fixed;fillColor=#0000FF;strokeColor=light-dark(#000000, #446e2c);" vertex="1" parent="1">
          <mxGeometry x="962" y="-201" width="58" height="58" as="geometry" />
        </mxCell>
        <mxCell id="9CwyKLwQtNaCPTv-vUPz-74" value="" style="whiteSpace=wrap;html=1;aspect=fixed;fillColor=#0000FF;strokeColor=light-dark(#000000, #446e2c);" vertex="1" parent="1">
          <mxGeometry x="1078" y="-201" width="58" height="58" as="geometry" />
        </mxCell>
        <mxCell id="9CwyKLwQtNaCPTv-vUPz-75" value="" style="whiteSpace=wrap;html=1;aspect=fixed;fillColor=#0000FF;strokeColor=light-dark(#000000, #446e2c);" vertex="1" parent="1">
          <mxGeometry x="962" y="-85" width="58" height="58" as="geometry" />
        </mxCell>
        <mxCell id="9CwyKLwQtNaCPTv-vUPz-76" value="" style="whiteSpace=wrap;html=1;aspect=fixed;fillColor=#0000FF;strokeColor=light-dark(#000000, #446e2c);" vertex="1" parent="1">
          <mxGeometry x="1078" y="-85" width="58" height="58" as="geometry" />
        </mxCell>
        <mxCell id="9CwyKLwQtNaCPTv-vUPz-77" value="" style="whiteSpace=wrap;html=1;aspect=fixed;fillColor=#0000FF;strokeColor=light-dark(#000000, #446e2c);" vertex="1" parent="1">
          <mxGeometry x="904" y="-143" width="58" height="58" as="geometry" />
        </mxCell>
        <mxCell id="9CwyKLwQtNaCPTv-vUPz-78" value="" style="whiteSpace=wrap;html=1;aspect=fixed;fillColor=#0000FF;strokeColor=light-dark(#000000, #446e2c);" vertex="1" parent="1">
          <mxGeometry x="1020" y="-143" width="58" height="58" as="geometry" />
        </mxCell>
        <mxCell id="9CwyKLwQtNaCPTv-vUPz-79" value="" style="whiteSpace=wrap;html=1;aspect=fixed;fillColor=#0000FF;strokeColor=light-dark(#000000, #446e2c);" vertex="1" parent="1">
          <mxGeometry x="904" y="-27" width="58" height="58" as="geometry" />
        </mxCell>
        <mxCell id="9CwyKLwQtNaCPTv-vUPz-80" value="" style="whiteSpace=wrap;html=1;aspect=fixed;fillColor=#0000FF;strokeColor=light-dark(#000000, #446e2c);" vertex="1" parent="1">
          <mxGeometry x="1020" y="-27" width="58" height="58" as="geometry" />
        </mxCell>
        <mxCell id="9CwyKLwQtNaCPTv-vUPz-81" value="" style="whiteSpace=wrap;html=1;aspect=fixed;fillColor=#0000FF;strokeColor=light-dark(#000000, #446e2c);" vertex="1" parent="1">
          <mxGeometry x="1020" y="-85" width="58" height="58" as="geometry" />
        </mxCell>
        <mxCell id="9CwyKLwQtNaCPTv-vUPz-82" value="" style="whiteSpace=wrap;html=1;aspect=fixed;fillColor=#0000FF;strokeColor=light-dark(#000000, #446e2c);" vertex="1" parent="1">
          <mxGeometry x="1078" y="-143" width="58" height="58" as="geometry" />
        </mxCell>
        <mxCell id="9CwyKLwQtNaCPTv-vUPz-83" value="" style="whiteSpace=wrap;html=1;aspect=fixed;fillColor=#0000FF;strokeColor=light-dark(#000000, #446e2c);" vertex="1" parent="1">
          <mxGeometry x="962" y="-27" width="58" height="58" as="geometry" />
        </mxCell>
        <mxCell id="9CwyKLwQtNaCPTv-vUPz-84" value="" style="whiteSpace=wrap;html=1;aspect=fixed;fillColor=#0000FF;strokeColor=light-dark(#000000, #446e2c);" vertex="1" parent="1">
          <mxGeometry x="1078" y="-27" width="58" height="58" as="geometry" />
        </mxCell>
        <mxCell id="9CwyKLwQtNaCPTv-vUPz-85" value="" style="whiteSpace=wrap;html=1;aspect=fixed;fillColor=#FF0000;strokeColor=light-dark(#000000, #446e2c);" vertex="1" parent="1">
          <mxGeometry x="930" y="-179" width="58" height="58" as="geometry" />
        </mxCell>
        <mxCell id="9CwyKLwQtNaCPTv-vUPz-86" value="" style="whiteSpace=wrap;html=1;aspect=fixed;fillColor=#FF0000;strokeColor=light-dark(#000000, #446e2c);" vertex="1" parent="1">
          <mxGeometry x="1046" y="-179" width="58" height="58" as="geometry" />
        </mxCell>
        <mxCell id="9CwyKLwQtNaCPTv-vUPz-87" value="" style="whiteSpace=wrap;html=1;aspect=fixed;fillColor=#FF0000;strokeColor=light-dark(#000000, #446e2c);" vertex="1" parent="1">
          <mxGeometry x="930" y="-63" width="58" height="58" as="geometry" />
        </mxCell>
        <mxCell id="9CwyKLwQtNaCPTv-vUPz-88" value="" style="whiteSpace=wrap;html=1;aspect=fixed;fillColor=#FF0000;strokeColor=light-dark(#000000, #446e2c);" vertex="1" parent="1">
          <mxGeometry x="988" y="-121" width="58" height="58" as="geometry" />
        </mxCell>
        <mxCell id="9CwyKLwQtNaCPTv-vUPz-89" value="" style="whiteSpace=wrap;html=1;aspect=fixed;fillColor=#FF0000;strokeColor=light-dark(#000000, #446e2c);" vertex="1" parent="1">
          <mxGeometry x="988" y="-179" width="58" height="58" as="geometry" />
        </mxCell>
        <mxCell id="9CwyKLwQtNaCPTv-vUPz-90" value="" style="whiteSpace=wrap;html=1;aspect=fixed;fillColor=#FF0000;strokeColor=light-dark(#000000, #446e2c);" vertex="1" parent="1">
          <mxGeometry x="1104" y="-179" width="58" height="58" as="geometry" />
        </mxCell>
        <mxCell id="9CwyKLwQtNaCPTv-vUPz-91" value="" style="whiteSpace=wrap;html=1;aspect=fixed;fillColor=#FF0000;strokeColor=light-dark(#000000, #446e2c);" vertex="1" parent="1">
          <mxGeometry x="988" y="-63" width="58" height="58" as="geometry" />
        </mxCell>
        <mxCell id="9CwyKLwQtNaCPTv-vUPz-92" value="" style="whiteSpace=wrap;html=1;aspect=fixed;fillColor=#FF0000;strokeColor=light-dark(#000000, #446e2c);" vertex="1" parent="1">
          <mxGeometry x="1104" y="-63" width="58" height="58" as="geometry" />
        </mxCell>
        <mxCell id="9CwyKLwQtNaCPTv-vUPz-93" value="" style="whiteSpace=wrap;html=1;aspect=fixed;fillColor=#FF0000;strokeColor=light-dark(#000000, #446e2c);" vertex="1" parent="1">
          <mxGeometry x="930" y="-121" width="58" height="58" as="geometry" />
        </mxCell>
        <mxCell id="9CwyKLwQtNaCPTv-vUPz-94" value="" style="whiteSpace=wrap;html=1;aspect=fixed;fillColor=#FF0000;strokeColor=light-dark(#000000, #446e2c);" vertex="1" parent="1">
          <mxGeometry x="1046" y="-121" width="58" height="58" as="geometry" />
        </mxCell>
        <mxCell id="9CwyKLwQtNaCPTv-vUPz-95" value="" style="whiteSpace=wrap;html=1;aspect=fixed;fillColor=#FF0000;strokeColor=light-dark(#000000, #446e2c);" vertex="1" parent="1">
          <mxGeometry x="930" y="-5" width="58" height="58" as="geometry" />
        </mxCell>
        <mxCell id="9CwyKLwQtNaCPTv-vUPz-96" value="" style="whiteSpace=wrap;html=1;aspect=fixed;fillColor=#FF0000;strokeColor=light-dark(#000000, #446e2c);" vertex="1" parent="1">
          <mxGeometry x="1046" y="-5" width="58" height="58" as="geometry" />
        </mxCell>
        <mxCell id="9CwyKLwQtNaCPTv-vUPz-97" value="" style="whiteSpace=wrap;html=1;aspect=fixed;fillColor=#FF0000;strokeColor=light-dark(#000000, #446e2c);" vertex="1" parent="1">
          <mxGeometry x="1046" y="-63" width="58" height="58" as="geometry" />
        </mxCell>
        <mxCell id="9CwyKLwQtNaCPTv-vUPz-98" value="" style="whiteSpace=wrap;html=1;aspect=fixed;fillColor=#FF0000;strokeColor=light-dark(#000000, #446e2c);" vertex="1" parent="1">
          <mxGeometry x="1104" y="-121" width="58" height="58" as="geometry" />
        </mxCell>
        <mxCell id="9CwyKLwQtNaCPTv-vUPz-99" value="" style="whiteSpace=wrap;html=1;aspect=fixed;fillColor=#FF0000;strokeColor=light-dark(#000000, #446e2c);" vertex="1" parent="1">
          <mxGeometry x="988" y="-5" width="58" height="58" as="geometry" />
        </mxCell>
        <mxCell id="9CwyKLwQtNaCPTv-vUPz-100" value="" style="whiteSpace=wrap;html=1;aspect=fixed;fillColor=#FF0000;strokeColor=light-dark(#000000, #446e2c);" vertex="1" parent="1">
          <mxGeometry x="1104" y="-5" width="58" height="58" as="geometry" />
        </mxCell>
        <mxCell id="9CwyKLwQtNaCPTv-vUPz-101" value="" style="whiteSpace=wrap;html=1;aspect=fixed;fillColor=#00FF00;strokeColor=light-dark(#000000, #446e2c);" vertex="1" parent="1">
          <mxGeometry x="928" y="177" width="58" height="58" as="geometry" />
        </mxCell>
        <mxCell id="9CwyKLwQtNaCPTv-vUPz-102" value="" style="whiteSpace=wrap;html=1;aspect=fixed;fillColor=#00FF00;strokeColor=light-dark(#000000, #446e2c);" vertex="1" parent="1">
          <mxGeometry x="986" y="177" width="58" height="58" as="geometry" />
        </mxCell>
        <mxCell id="9CwyKLwQtNaCPTv-vUPz-103" value="" style="whiteSpace=wrap;html=1;aspect=fixed;fillColor=#00FF00;strokeColor=light-dark(#000000, #446e2c);" vertex="1" parent="1">
          <mxGeometry x="928" y="235" width="58" height="58" as="geometry" />
        </mxCell>
        <mxCell id="9CwyKLwQtNaCPTv-vUPz-104" value="" style="whiteSpace=wrap;html=1;aspect=fixed;fillColor=#00FF00;strokeColor=light-dark(#000000, #446e2c);" vertex="1" parent="1">
          <mxGeometry x="986" y="235" width="58" height="58" as="geometry" />
        </mxCell>
        <mxCell id="9CwyKLwQtNaCPTv-vUPz-105" value="" style="whiteSpace=wrap;html=1;aspect=fixed;fillColor=#0000FF;strokeColor=light-dark(#000000, #446e2c);" vertex="1" parent="1">
          <mxGeometry x="946" y="193" width="58" height="58" as="geometry" />
        </mxCell>
        <mxCell id="9CwyKLwQtNaCPTv-vUPz-106" value="" style="whiteSpace=wrap;html=1;aspect=fixed;fillColor=#0000FF;strokeColor=light-dark(#000000, #446e2c);" vertex="1" parent="1">
          <mxGeometry x="1004" y="193" width="58" height="58" as="geometry" />
        </mxCell>
        <mxCell id="9CwyKLwQtNaCPTv-vUPz-107" value="" style="whiteSpace=wrap;html=1;aspect=fixed;fillColor=#0000FF;strokeColor=light-dark(#000000, #446e2c);" vertex="1" parent="1">
          <mxGeometry x="946" y="251" width="58" height="58" as="geometry" />
        </mxCell>
        <mxCell id="9CwyKLwQtNaCPTv-vUPz-108" value="" style="whiteSpace=wrap;html=1;aspect=fixed;fillColor=#0000FF;strokeColor=light-dark(#000000, #446e2c);" vertex="1" parent="1">
          <mxGeometry x="1004" y="251" width="58" height="58" as="geometry" />
        </mxCell>
        <mxCell id="9CwyKLwQtNaCPTv-vUPz-109" value="" style="whiteSpace=wrap;html=1;aspect=fixed;fillColor=#FF0000;strokeColor=light-dark(#000000, #446e2c);" vertex="1" parent="1">
          <mxGeometry x="962" y="209" width="58" height="58" as="geometry" />
        </mxCell>
        <mxCell id="9CwyKLwQtNaCPTv-vUPz-110" value="" style="whiteSpace=wrap;html=1;aspect=fixed;fillColor=#FF0000;strokeColor=light-dark(#000000, #446e2c);" vertex="1" parent="1">
          <mxGeometry x="1020" y="209" width="58" height="58" as="geometry" />
        </mxCell>
        <mxCell id="9CwyKLwQtNaCPTv-vUPz-111" value="" style="whiteSpace=wrap;html=1;aspect=fixed;fillColor=#FF0000;strokeColor=light-dark(#000000, #446e2c);" vertex="1" parent="1">
          <mxGeometry x="962" y="267" width="58" height="58" as="geometry" />
        </mxCell>
        <mxCell id="9CwyKLwQtNaCPTv-vUPz-112" value="" style="whiteSpace=wrap;html=1;aspect=fixed;fillColor=#FF0000;strokeColor=light-dark(#000000, #446e2c);" vertex="1" parent="1">
          <mxGeometry x="1020" y="267" width="58" height="58" as="geometry" />
        </mxCell>
        <mxCell id="9CwyKLwQtNaCPTv-vUPz-114" value="&lt;b style=&quot;forced-color-adjust: none; color: rgb(0, 0, 0); font-family: Helvetica; font-size: 12px; font-style: normal; font-variant-ligatures: normal; font-variant-caps: normal; letter-spacing: normal; orphans: 2; text-align: center; text-indent: 0px; text-transform: none; widows: 2; word-spacing: 0px; -webkit-text-stroke-width: 0px; white-space: normal; background-color: rgb(236, 236, 236); text-decoration-thickness: initial; text-decoration-style: initial; text-decoration-color: initial;&quot;&gt;&lt;font style=&quot;forced-color-adjust: none; font-size: 17px;&quot;&gt;demosaic/&lt;br&gt;debayering&lt;/font&gt;&lt;/b&gt;" style="text;whiteSpace=wrap;html=1;" vertex="1" parent="1">
          <mxGeometry x="732" y="-124" width="108" height="42" as="geometry" />
        </mxCell>
        <mxCell id="9CwyKLwQtNaCPTv-vUPz-115" value="&lt;b data-mx-given-colors=&quot;{&amp;quot;color&amp;quot;:&amp;quot;rgb(0, 0, 0)&amp;quot;,&amp;quot;background-color&amp;quot;:&amp;quot;rgb(236, 236, 236)&amp;quot;}&quot; style=&quot;forced-color-adjust: none; color: light-dark(rgb(0, 0, 0), rgb(237, 237, 237)); font-family: Helvetica; font-size: 12px; font-style: normal; font-variant-ligatures: normal; font-variant-caps: normal; letter-spacing: normal; orphans: 2; text-indent: 0px; text-transform: none; widows: 2; word-spacing: 0px; -webkit-text-stroke-width: 0px; white-space: normal; text-decoration-thickness: initial; text-decoration-style: initial; text-decoration-color: initial; text-align: center; background-color: light-dark(rgb(236, 236, 236), rgb(34, 34, 34));&quot;&gt;&lt;font style=&quot;forced-color-adjust: none; font-size: 17px;&quot;&gt;demosaic/&lt;br style=&quot;forced-color-adjust: none;&quot;&gt;debayering&lt;/font&gt;&lt;/b&gt;" style="text;whiteSpace=wrap;html=1;" vertex="1" parent="1">
          <mxGeometry x="690.9985714285714" y="206.5042857142858" width="119" height="63" as="geometry" />
        </mxCell>
        <mxCell id="9CwyKLwQtNaCPTv-vUPz-117" value="&lt;span style=&quot;font-size: 17px;&quot;&gt;&lt;b&gt;&lt;i&gt;QuadRaw&lt;/i&gt;&lt;/b&gt;&lt;/span&gt;" style="text;html=1;whiteSpace=wrap;strokeColor=none;fillColor=none;align=center;verticalAlign=middle;rounded=0;" vertex="1" parent="1">
          <mxGeometry x="121" y="202" width="60" height="20" as="geometry" />
        </mxCell>
        <mxCell id="9CwyKLwQtNaCPTv-vUPz-118" value="&lt;span style=&quot;font-size: 17px;&quot;&gt;&lt;b&gt;&lt;i&gt;NormalRaw&lt;/i&gt;&lt;/b&gt;&lt;/span&gt;" style="text;html=1;whiteSpace=wrap;strokeColor=none;fillColor=none;align=center;verticalAlign=middle;rounded=0;" vertex="1" parent="1">
          <mxGeometry x="557" y="31" width="60" height="20" as="geometry" />
        </mxCell>
        <mxCell id="9CwyKLwQtNaCPTv-vUPz-119" value="&lt;span style=&quot;font-size: 17px;&quot;&gt;&lt;b&gt;&lt;i&gt;NormalRaw&lt;/i&gt;&lt;/b&gt;&lt;/span&gt;" style="text;html=1;whiteSpace=wrap;strokeColor=none;fillColor=none;align=center;verticalAlign=middle;rounded=0;" vertex="1" parent="1">
          <mxGeometry x="562" y="298" width="60" height="20" as="geometry" />
        </mxCell>
        <mxCell id="9CwyKLwQtNaCPTv-vUPz-120" value="&lt;span style=&quot;font-size: 17px;&quot;&gt;&lt;b&gt;&lt;i&gt;RGB&lt;/i&gt;&lt;/b&gt;&lt;/span&gt;" style="text;html=1;whiteSpace=wrap;strokeColor=none;fillColor=none;align=center;verticalAlign=middle;rounded=0;" vertex="1" parent="1">
          <mxGeometry x="993" y="66" width="60" height="20" as="geometry" />
        </mxCell>
        <mxCell id="9CwyKLwQtNaCPTv-vUPz-121" value="&lt;span style=&quot;font-size: 17px;&quot;&gt;&lt;b&gt;&lt;i&gt;RGB&lt;/i&gt;&lt;/b&gt;&lt;/span&gt;" style="text;html=1;whiteSpace=wrap;strokeColor=none;fillColor=none;align=center;verticalAlign=middle;rounded=0;" vertex="1" parent="1">
          <mxGeometry x="988" y="332" width="60" height="20" as="geometry" />
        </mxCell>
      </root>
    </mxGraphModel>
  </diagram>
</mxfile>
